<?xml version="1.0" encoding="UTF-8"?>
<svg xmlns="http://www.w3.org/2000/svg" xmlns:xlink="http://www.w3.org/1999/xlink" width="100pt" height="100pt" viewBox="0 0 100 100" version="1.1">
<g id="surface17009388">
<path style=" stroke:none;fill-rule:nonzero;fill:rgb(95.686275%,94.509804%,93.333333%);fill-opacity:1;" d="M 50 14 C 30.128906 14 14 30.128906 14 50 C 14 69.871094 30.128906 86 50 86 C 69.871094 86 86 69.871094 86 50 C 86 30.128906 69.871094 14 50 14 Z M 50 16 C 68.789062 16 84 31.210938 84 50 C 84 67.089844 71.414062 81.214844 55 83.632812 L 55 60 L 63.789062 60 L 65.894531 50 L 55.003906 50 L 55.003906 42.429688 C 55.003906 41.152344 55.28125 40.355469 55.9375 39.816406 C 56.59375 39.28125 57.738281 38.96875 59.566406 38.96875 L 64.96875 39.003906 L 65.003906 29.621094 L 64.644531 29.511719 C 61.070312 28.414062 57.972656 28.078125 55.339844 28.335938 C 52.710938 28.59375 50.546875 29.445312 48.839844 30.710938 C 45.425781 33.246094 43.898438 37.386719 44 41.539062 L 44 50 L 35 50 L 35 60 L 44 60 L 44 83.460938 C 28.078125 80.628906 16 66.742188 16 50 C 16 31.210938 31.210938 16 50 16 Z M 46.664062 19.265625 C 46.65625 19.265625 46.648438 19.265625 46.644531 19.265625 C 46.628906 19.265625 46.617188 19.269531 46.609375 19.269531 C 39.5 20.035156 32.625 23.257812 27.371094 28.886719 C 27.238281 29.015625 27.1875 29.207031 27.238281 29.382812 C 27.289062 29.558594 27.433594 29.695312 27.613281 29.734375 C 27.792969 29.769531 27.980469 29.707031 28.101562 29.570312 C 33.1875 24.121094 39.835938 21.007812 46.714844 20.265625 C 46.992188 20.25 47.203125 20.015625 47.191406 19.738281 C 47.175781 19.460938 46.941406 19.25 46.664062 19.265625 Z M 57.230469 29.273438 C 59.21875 29.296875 61.46875 29.644531 63.996094 30.390625 L 63.972656 37.996094 L 59.574219 37.96875 L 59.570312 37.96875 C 57.628906 37.96875 56.242188 38.277344 55.304688 39.042969 C 54.367188 39.808594 54.003906 40.992188 54.003906 42.429688 L 54.003906 51 L 64.660156 51 L 62.976562 59 L 54 59 L 54 83.757812 C 52.6875 83.910156 51.355469 84 50 84 C 48.300781 84 46.632812 83.875 45 83.632812 L 45 59 L 36 59 L 36 51 L 45 51 L 45 41.519531 C 44.90625 37.621094 46.328125 33.824219 49.4375 31.515625 C 51.34375 30.097656 53.917969 29.234375 57.230469 29.273438 Z M 23.53125 34.4375 C 23.347656 34.4375 23.179688 34.535156 23.089844 34.695312 C 16.164062 46.863281 18.230469 62.652344 28.9375 72.652344 C 29.140625 72.839844 29.457031 72.828125 29.644531 72.625 C 29.832031 72.421875 29.820312 72.105469 29.617188 71.917969 C 19.25 62.234375 17.261719 46.960938 23.960938 35.191406 C 24.050781 35.035156 24.050781 34.84375 23.964844 34.691406 C 23.875 34.535156 23.710938 34.4375 23.53125 34.4375 Z M 78.414062 38.515625 C 78.246094 38.511719 78.089844 38.59375 77.996094 38.730469 C 77.902344 38.871094 77.882812 39.046875 77.945312 39.203125 C 79.410156 42.945312 80.09375 46.933594 79.996094 50.90625 C 79.980469 51.554688 79.941406 52.203125 79.886719 52.847656 C 79.867188 53.027344 79.949219 53.199219 80.09375 53.300781 C 80.242188 53.40625 80.429688 53.421875 80.59375 53.347656 C 80.753906 53.269531 80.863281 53.117188 80.882812 52.9375 C 80.941406 52.269531 80.980469 51.601562 80.996094 50.929688 C 81.097656 46.824219 80.390625 42.707031 78.878906 38.835938 C 78.804688 38.644531 78.621094 38.515625 78.414062 38.511719 Z M 79.492188 56.679688 C 79.253906 56.675781 79.046875 56.839844 78.996094 57.074219 C 78.601562 58.777344 78.054688 60.457031 77.355469 62.085938 C 77.175781 62.5 76.984375 62.910156 76.789062 63.320312 C 76.667969 63.570312 76.769531 63.867188 77.019531 63.988281 C 77.265625 64.109375 77.566406 64.007812 77.6875 63.757812 C 77.894531 63.335938 78.085938 62.910156 78.273438 62.480469 C 78.996094 60.796875 79.5625 59.0625 79.972656 57.296875 C 80.007812 57.152344 79.972656 56.996094 79.878906 56.875 C 79.789062 56.753906 79.644531 56.683594 79.492188 56.679688 Z M 75.203125 66.800781 C 75.035156 66.800781 74.882812 66.886719 74.792969 67.023438 C 73.953125 68.242188 73.015625 69.417969 71.972656 70.535156 C 69.375 73.316406 66.367188 75.488281 63.128906 77.050781 C 62.96875 77.128906 62.859375 77.285156 62.847656 77.464844 C 62.832031 77.644531 62.917969 77.816406 63.066406 77.917969 C 63.210938 78.015625 63.402344 78.03125 63.566406 77.953125 C 66.910156 76.339844 70.019531 74.089844 72.703125 71.214844 C 73.777344 70.0625 74.75 68.851562 75.617188 67.589844 C 75.722656 67.4375 75.738281 67.234375 75.648438 67.070312 C 75.5625 66.902344 75.390625 66.796875 75.203125 66.800781 Z M 75.203125 66.800781 "/>
</g>
</svg>
