<?xml version="1.0" encoding="UTF-8"?>
<svg xmlns="http://www.w3.org/2000/svg" xmlns:xlink="http://www.w3.org/1999/xlink" width="32pt" height="32pt" viewBox="0 0 32 32" version="1.1">
<g id="surface16780635">
<path style=" stroke:none;fill-rule:nonzero;fill:rgb(95.686275%,94.509804%,93.333333%);fill-opacity:1;" d="M 16 3 C 8.800781 3 3 8.800781 3 16 C 3 23.199219 8.800781 29 16 29 C 23.199219 29 29 23.199219 29 16 C 29 8.800781 23.199219 3 16 3 Z M 16 5 C 22.101562 5 27 9.898438 27 16 C 27 22.101562 22.101562 27 16 27 C 9.898438 27 5 22.101562 5 16 C 5 9.898438 9.898438 5 16 5 Z M 16.207031 9.046875 C 15.757812 9.121094 15.300781 10.5 15.300781 10.5 C 15.300781 10.5 14.097656 10.300781 13.097656 11.300781 C 12.898438 11.5 12.699219 11.597656 12.402344 11.699219 C 12.300781 11.800781 12.199219 11.800781 12 12.402344 C 11.601562 13.300781 12.597656 14.402344 12.597656 14.402344 C 10.5 15.902344 10.597656 17.902344 10.699219 18.402344 C 9.398438 19.5 9.898438 20.902344 10.199219 21.300781 C 10.398438 21.601562 10.597656 21.5 10.699219 21.5 C 10.699219 21.601562 10.199219 22.199219 10.699219 22.402344 C 11.199219 22.699219 12 22.800781 12.402344 22.402344 C 12.699219 22.101562 12.800781 21.5 12.902344 21.199219 C 13 21.097656 13 21.398438 13.402344 21.597656 C 13.402344 21.597656 12.699219 21.898438 13 22.597656 C 13.101562 22.800781 13.398438 23 14 23 C 14.199219 23 16.597656 22.898438 17.199219 22.699219 C 17.597656 22.597656 17.699219 22.402344 17.699219 22.402344 C 20.300781 21.699219 20.800781 20.597656 22.597656 20.199219 C 23.199219 20.097656 23.199219 19.097656 22.097656 19.199219 C 21.300781 19.199219 20.601562 19.601562 20 20 C 19 20.601562 18.300781 20.699219 18.300781 20.597656 C 18.199219 20.5 18.699219 19.300781 18.199219 18 C 17.699219 16.601562 16.800781 16.199219 16.902344 16.097656 C 17.199219 15.597656 17.898438 14.800781 18.199219 13.402344 C 18.300781 12.5 18.300781 11 17.902344 10.300781 C 17.800781 10.101562 17.199219 10.5 17.199219 10.5 C 17.199219 10.5 16.601562 9.199219 16.402344 9.097656 C 16.335938 9.050781 16.273438 9.035156 16.207031 9.042969 Z M 16.207031 9.046875 "/>
</g>
</svg>
